<svg width="9" height="10" viewBox="0 2 9 10" fill="none" xmlns="http://www.w3.org/2000/svg">
<path d="M7.93605 3.99559L7.26569 4.98678C6.9305 4.84141 6.57437 4.70925 6.17634 4.61674L6.70007 3.86344C6.95145 3.50661 6.65817 3.09692 5.9878 2.91189C5.65262 2.8326 5.19174 2.7533 4.60518 2.7533C4.01861 2.7533 3.55773 2.81938 3.2016 2.92511C2.53123 3.11013 2.23795 3.51982 2.48933 3.87665L3.01306 4.62996C2.61503 4.72247 2.2589 4.84141 1.92371 5L1.25335 4.00881C0.750575 3.22907 1.52569 2.38326 2.97116 2.13216C3.43204 2.05286 3.95576 2 4.60518 2C5.25459 2 5.77831 2.05286 6.23919 2.13216C7.68467 2.38326 8.45978 3.22907 7.93605 3.99559Z" fill="#BBF49C"/>
<path d="M4.344 9.384L4.62 7.032H7.848L7.272 12H1.08L0.012 10.788L0.432 7.188L2.088 6.216H0.54L0.708 4.812L2.064 3.6H8.1L7.8 6.216H3.78L3.408 9.384H4.344Z" fill="#A9E884"/>
</svg>
